<svg width="40" height="40" viewBox="0 0 40 40" fill="none" xmlns="http://www.w3.org/2000/svg">
<path d="M20 38.5H1.5V20C1.5 9.78273 9.78273 1.5 20 1.5C30.2173 1.5 38.5 9.78273 38.5 20C38.5 30.2173 30.2173 38.5 20 38.5Z" stroke="#450063" stroke-width="3"/>
<path fill-rule="evenodd" clip-rule="evenodd" d="M23.9929 31.8899C24.3465 31.8902 24.6492 31.6365 24.7106 31.2882C25.5639 26.8299 24.1571 22.238 20.9529 19.0227C17.744 15.793 13.1341 14.3792 8.66624 15.2544C8.38788 15.2819 8.14891 15.4642 8.04888 15.7254C7.94885 15.9867 8.00489 16.282 8.19367 16.4884C8.38246 16.6948 8.67159 16.7769 8.94069 16.7005C12.9259 15.9251 17.0354 17.1881 19.8973 20.0677C22.7775 22.9304 24.0541 27.033 23.3068 31.0244C23.2697 31.2176 23.3113 31.4177 23.4223 31.5801C23.5333 31.7426 23.7044 31.8541 23.8979 31.8899H23.9929ZM17.2268 22.7488C19.4848 25.0097 20.2732 28.3515 19.264 31.3832C19.1712 31.6666 18.9174 31.8664 18.6201 31.8899C18.5435 31.905 18.4646 31.905 18.3879 31.8899C18.0007 31.7641 17.7882 31.3486 17.9129 30.961C18.7778 28.4561 18.1419 25.6771 16.2736 23.7976C14.4053 21.9181 11.6303 21.2655 9.12013 22.1155C8.72976 22.2408 8.3112 22.0291 8.18068 21.6405C8.05604 21.2529 8.26846 20.8375 8.65569 20.7116C11.6677 19.7055 14.9896 20.4951 17.2268 22.7488ZM8.30825 29.9347C7.81859 28.7522 8.08897 27.3911 8.99346 26.4855C10.2412 25.3229 12.1855 25.3572 13.3914 26.5631C14.5973 27.769 14.6316 29.7134 13.469 30.961C12.8757 31.5551 12.0708 31.8892 11.2312 31.8899C9.95131 31.8889 8.7979 31.1173 8.30825 29.9347ZM10.3057 30.1177C10.9696 30.5639 11.8562 30.4796 12.424 29.916C12.7419 29.6006 12.9205 29.1711 12.9201 28.7232C12.9194 27.9233 12.3542 27.235 11.5697 27.0788C10.7852 26.9225 9.99936 27.3416 9.69216 28.0802C9.38495 28.8189 9.64172 29.6716 10.3057 30.1177Z" fill="#1DA1F2"/>
</svg>
